<svg width="64" height="64" viewBox="0 0 64 64" fill="none" xmlns="http://www.w3.org/2000/svg">
<rect width="64" height="64" rx="8" fill="white"/>
<mask id="mask0_57414_10967" style="mask-type:luminance" maskUnits="userSpaceOnUse" x="5" y="7" width="53" height="49">
<path d="M57.9174 7.99988H5.55371V55.9999H57.9174V7.99988Z" fill="white"/>
</mask>
<g mask="url(#mask0_57414_10967)">
<path d="M10.6627 20.7546V7.99988H22.8921V20.7546H30.3544V29.7651H22.8921V40.6412C22.8921 43.8023 23.814 45.3829 25.6611 45.3829C26.1204 45.3829 26.6031 45.2954 27.1093 45.1173C27.6138 44.9408 28.0044 44.7611 28.2826 44.5797L28.6983 44.3141L31.7356 53.8623C29.1107 55.2874 26.1187 55.9999 22.758 55.9999C20.4549 55.9999 18.4753 55.6113 16.8176 54.834C15.1582 54.0534 13.9027 53.0056 13.0496 51.6922C12.1947 50.3805 11.5829 49.0008 11.2125 47.553C10.8454 46.1068 10.6627 44.5603 10.6627 42.9149V29.7651H5.55371V20.7546H10.6627Z" fill="#785B5B"/>
<path d="M34.8717 27.9632C32.7808 25.7223 31.7354 22.9744 31.7354 19.718C31.7354 16.4584 32.7808 13.6993 34.8717 11.4407C36.9659 9.18204 39.6301 8.05273 42.8628 8.05273C45.8293 8.05273 48.273 8.9687 50.194 10.799V8.70081H57.9172V30.6839H50.2789V28.2006H50.194C48.273 30.2844 45.8293 31.3255 42.8628 31.3255C39.6301 31.3255 36.9659 30.2058 34.8717 27.9632ZM41.4384 15.9835C40.4354 16.9557 39.9356 18.1973 39.9356 19.7116C39.9356 21.2259 40.4142 22.4627 41.373 23.4203C42.3352 24.3796 43.6028 24.8576 45.1759 24.8576C46.6868 24.8576 47.93 24.3732 48.9068 23.4011C49.882 22.4258 50.3704 21.197 50.3704 19.7116C50.3704 18.1973 49.8673 16.9557 48.8611 15.9835C47.8581 15.013 46.6297 14.527 45.1759 14.527C43.6894 14.527 42.4446 15.013 41.4384 15.9835Z" fill="#785B5B"/>
<path d="M34.8717 52.6375C32.7808 50.3966 31.7354 47.6487 31.7354 44.3923C31.7354 41.1327 32.7808 38.3736 34.8717 36.115C36.9659 33.8564 39.6301 32.7271 42.8628 32.7271C45.8293 32.7271 48.273 33.643 50.194 35.4733V33.3751H57.9172V55.3582H50.2789V52.875H50.194C48.273 54.9588 45.8293 55.9998 42.8628 55.9998C39.6301 55.9998 36.9659 54.8802 34.8717 52.6375ZM41.4384 40.6579C40.4354 41.63 39.9356 42.8716 39.9356 44.3859C39.9356 45.9002 40.4142 47.137 41.373 48.0946C42.3352 49.0539 43.6028 49.5319 45.1759 49.5319C46.6868 49.5319 47.93 49.0475 48.9068 48.0754C49.882 47.1001 50.3704 45.8713 50.3704 44.3859C50.3704 42.8716 49.8673 41.63 48.8611 40.6579C47.8581 39.6874 46.6297 39.2014 45.1759 39.2014C43.6894 39.2014 42.4446 39.6874 41.4384 40.6579Z" fill="#785B5B"/>
</g>
</svg>
