<svg width="80" height="40" viewBox="0 0 80 40" fill="none" xmlns="http://www.w3.org/2000/svg">
  <path
    d="M2.47477 37.1464V38.0428C2.47477 38.1223 2.47477 38.1786 2.47477 38.2106C2.48389 38.3078 2.51237 38.3718 2.56136 38.4005C2.61263 38.427 2.70947 38.4347 2.85303 38.4226V38.7494C2.74365 38.767 2.62972 38.7759 2.51123 38.7759C2.31982 38.7759 2.18311 38.7449 2.10107 38.6831C2.02132 38.6213 1.97575 38.5197 1.96436 38.3784C1.95752 38.3232 1.95524 38.2305 1.95524 38.1002V37.1464H1.66357V36.8153H1.95524V36.3428H2.47477V36.8153H2.88493V37.1464H2.47477Z"
    fill="#2B2B2B" />
  <path
    d="M5.93066 37.2921C5.93978 37.3804 5.94434 37.4986 5.94434 37.6454V38.7361H5.42936V37.716C5.42936 37.6012 5.42594 37.5118 5.42025 37.4467C5.40202 37.2171 5.27441 37.1022 5.03743 37.1022C4.90299 37.1056 4.79362 37.1685 4.70931 37.2921C4.62728 37.4136 4.58626 37.6001 4.58626 37.8529V38.7361H4.07129V36.0469H4.58626V37.1155L4.74121 36.8859C4.87109 36.7976 5.03288 36.7534 5.22428 36.7534C5.43392 36.7534 5.59798 36.8009 5.71647 36.8947C5.83724 36.9896 5.90902 37.1221 5.93066 37.2921Z"
    fill="#2B2B2B" />
  <path
    d="M8.27848 36.7529C8.33545 36.7529 8.38444 36.7596 8.42432 36.7706V37.1724C8.20557 37.1581 8.04264 37.2033 7.93669 37.3093C7.82959 37.4153 7.77718 37.5952 7.77718 37.848V38.7356H7.26221V36.8015H7.77718V37.1548L7.93669 36.8854C8.03353 36.7971 8.14746 36.7529 8.27848 36.7529Z"
    fill="#2B2B2B" />
  <path
    d="M11.359 37.7288C11.359 37.7995 11.3568 37.8569 11.3545 37.901H9.93717C9.96452 38.2576 10.1172 38.4353 10.3975 38.4353C10.5091 38.4353 10.6025 38.4066 10.6755 38.347C10.7484 38.2885 10.7939 38.209 10.8122 38.1086H11.3317C11.2793 38.3294 11.1688 38.4994 10.999 38.6164C10.8315 38.7312 10.6265 38.7886 10.3838 38.7886C10.0978 38.7886 9.86426 38.7025 9.68197 38.5281C9.50195 38.3547 9.41309 38.1042 9.41309 37.7774C9.41309 37.4771 9.50537 37.232 9.69108 37.04C9.87907 36.849 10.124 36.7529 10.4248 36.7529C10.7188 36.7529 10.9489 36.8457 11.113 37.0311C11.277 37.2166 11.359 37.4495 11.359 37.7288ZM10.402 37.1018C10.1468 37.1018 9.99642 37.2596 9.95085 37.5743H10.8258C10.7917 37.2596 10.6504 37.1018 10.402 37.1018Z"
    fill="#2B2B2B" />
  <path
    d="M14.3888 37.7288C14.3888 37.7995 14.3866 37.8569 14.3843 37.901H12.967C12.9943 38.2576 13.147 38.4353 13.4272 38.4353C13.5389 38.4353 13.6323 38.4066 13.7052 38.347C13.7782 38.2885 13.8237 38.209 13.842 38.1086H14.3615C14.3091 38.3294 14.1986 38.4994 14.0288 38.6164C13.8613 38.7312 13.6562 38.7886 13.4136 38.7886C13.1276 38.7886 12.894 38.7025 12.7118 38.5281C12.5317 38.3547 12.4429 38.1042 12.4429 37.7774C12.4429 37.4771 12.5352 37.232 12.7209 37.04C12.9089 36.849 13.1538 36.7529 13.4546 36.7529C13.7485 36.7529 13.9787 36.8457 14.1427 37.0311C14.3068 37.2166 14.3888 37.4495 14.3888 37.7288ZM13.4318 37.1018C13.1766 37.1018 13.0262 37.2596 12.9806 37.5743H13.8556C13.8215 37.2596 13.6802 37.1018 13.4318 37.1018Z"
    fill="#2B2B2B" />
  <path d="M17.952 37.848H17.0815V37.5654H17.952V37.848Z" fill="#2B2B2B" />
  <path
    d="M21.9204 38.7356L21.884 38.453L21.7882 38.6605C21.6572 38.7455 21.492 38.7886 21.2915 38.7886C21.1092 38.7886 20.9554 38.7378 20.8312 38.6385C20.7093 38.5391 20.6489 38.4 20.6489 38.2234C20.6489 38.0114 20.7412 37.848 20.9269 37.7332C21.1149 37.6162 21.3883 37.5566 21.7472 37.5566H21.8748V37.5169C21.8748 37.4407 21.8726 37.38 21.8703 37.3358C21.8521 37.1802 21.7484 37.1018 21.5604 37.1018C21.353 37.1018 21.2425 37.2122 21.2277 37.433H20.7264C20.7321 37.221 20.8141 37.0554 20.9725 36.934C21.1331 36.8136 21.3348 36.7529 21.5786 36.7529C22.0765 36.7529 22.3442 36.9428 22.3807 37.3226C22.3864 37.4142 22.3898 37.5124 22.3898 37.6184V38.2455C22.3898 38.3934 22.4012 38.5568 22.4263 38.7356H21.9204ZM21.492 38.4353C21.6014 38.4353 21.6925 38.3989 21.7655 38.3249C21.8384 38.2521 21.8748 38.1516 21.8748 38.0247V37.8657C21.4157 37.837 21.1867 37.943 21.1867 38.1836C21.1867 38.3514 21.2881 38.4353 21.492 38.4353Z"
    fill="#2B2B2B" />
  <path
    d="M24.5942 36.7529C24.8586 36.7529 25.0705 36.8225 25.2323 36.9605C25.3963 37.0996 25.4875 37.2784 25.5057 37.4992H24.9953C24.9497 37.2342 24.813 37.1018 24.5851 37.1018C24.445 37.1018 24.3345 37.1581 24.2524 37.2696C24.1727 37.3789 24.134 37.5389 24.134 37.7509C24.134 37.9805 24.1727 38.1527 24.2524 38.2675C24.3345 38.3801 24.4438 38.4353 24.5806 38.4353C24.6831 38.4353 24.7697 38.4044 24.8403 38.3426C24.9132 38.2786 24.9611 38.1869 24.9862 38.0688H25.5011C25.4578 38.3018 25.3519 38.4795 25.1821 38.6031C25.0146 38.7268 24.8039 38.7886 24.5487 38.7886C24.2661 38.7886 24.036 38.7025 23.8605 38.5281C23.6839 38.3547 23.5962 38.1064 23.5962 37.7818C23.5962 37.4639 23.6896 37.2144 23.8787 37.0311C24.0701 36.8457 24.3083 36.7529 24.5942 36.7529Z"
    fill="#2B2B2B" />
  <path
    d="M27.5601 36.7529C27.8244 36.7529 28.0363 36.8225 28.1981 36.9605C28.3621 37.0996 28.4533 37.2784 28.4715 37.4992H27.9611C27.9155 37.2342 27.7788 37.1018 27.5509 37.1018C27.4108 37.1018 27.3003 37.1581 27.2183 37.2696C27.1385 37.3789 27.0998 37.5389 27.0998 37.7509C27.0998 37.9805 27.1385 38.1527 27.2183 38.2675C27.3003 38.3801 27.4097 38.4353 27.5464 38.4353C27.6489 38.4353 27.7355 38.4044 27.8062 38.3426C27.8791 38.2786 27.9269 38.1869 27.952 38.0688H28.467C28.4237 38.3018 28.3177 38.4795 28.1479 38.6031C27.9805 38.7268 27.7697 38.7886 27.5145 38.7886C27.2319 38.7886 27.0018 38.7025 26.8263 38.5281C26.6497 38.3547 26.562 38.1064 26.562 37.7818C26.562 37.4639 26.6554 37.2144 26.8446 37.0311C27.036 36.8457 27.2741 36.7529 27.5601 36.7529Z"
    fill="#2B2B2B" />
  <path
    d="M31.4743 37.7288C31.4743 37.7995 31.472 37.8569 31.4697 37.901H30.0524C30.0798 38.2576 30.2324 38.4353 30.5127 38.4353C30.6243 38.4353 30.7178 38.4066 30.7907 38.347C30.8636 38.2885 30.9092 38.209 30.9274 38.1086H31.4469C31.3945 38.3294 31.284 38.4994 31.1143 38.6164C30.9468 38.7312 30.7417 38.7886 30.499 38.7886C30.2131 38.7886 29.9795 38.7025 29.7972 38.5281C29.6172 38.3547 29.5283 38.1042 29.5283 37.7774C29.5283 37.4771 29.6206 37.232 29.8063 37.04C29.9943 36.849 30.2393 36.7529 30.54 36.7529C30.834 36.7529 31.0641 36.8457 31.2282 37.0311C31.3923 37.2166 31.4743 37.4495 31.4743 37.7288ZM30.5173 37.1018C30.262 37.1018 30.1117 37.2596 30.0661 37.5743H30.9411C30.9069 37.2596 30.7656 37.1018 30.5173 37.1018Z"
    fill="#2B2B2B" />
  <path
    d="M33.4056 36.7529C33.6357 36.7529 33.8203 36.8092 33.957 36.9207C34.0938 37.03 34.1735 37.1768 34.1986 37.3623H33.679C33.6449 37.1768 33.5435 37.0841 33.3737 37.0841C33.2974 37.0841 33.2381 37.104 33.196 37.1415C33.1561 37.1768 33.1367 37.2254 33.1367 37.2872C33.1367 37.3612 33.1698 37.4197 33.237 37.4639C33.3031 37.508 33.4215 37.5511 33.5924 37.5919C33.8078 37.6449 33.9684 37.7189 34.0755 37.8127C34.1849 37.9077 34.2396 38.0401 34.2396 38.2101C34.2396 38.3956 34.1621 38.5391 34.0072 38.6385C33.8545 38.7378 33.6585 38.7886 33.4193 38.7886C33.1663 38.7886 32.9635 38.7356 32.8086 38.6296C32.6536 38.5214 32.5625 38.3603 32.5352 38.1483H33.0547C33.0729 38.2488 33.1151 38.3249 33.1823 38.3779C33.2484 38.4309 33.3293 38.4574 33.4238 38.4574C33.5116 38.4574 33.5833 38.4398 33.638 38.4044C33.6927 38.3669 33.7201 38.3139 33.7201 38.2455C33.7201 38.1693 33.6836 38.1075 33.6107 38.06C33.5378 38.0136 33.4147 37.9695 33.2415 37.9275C33.0376 37.8812 32.8826 37.8116 32.7767 37.72C32.6696 37.6295 32.6172 37.5058 32.6172 37.3491C32.6172 37.1636 32.6878 37.0179 32.8314 36.9119C32.9738 36.8059 33.1652 36.7529 33.4056 36.7529Z"
    fill="#2B2B2B" />
  <path
    d="M36.1317 36.7529C36.3618 36.7529 36.5464 36.8092 36.6831 36.9207C36.8198 37.03 36.8996 37.1768 36.9246 37.3623H36.4051C36.3709 37.1768 36.2695 37.0841 36.0998 37.0841C36.0234 37.0841 35.9642 37.104 35.922 37.1415C35.8822 37.1768 35.8628 37.2254 35.8628 37.2872C35.8628 37.3612 35.8958 37.4197 35.9631 37.4639C36.0291 37.508 36.1476 37.5511 36.3185 37.5919C36.5339 37.6449 36.6945 37.7189 36.8016 37.8127C36.911 37.9077 36.9657 38.0401 36.9657 38.2101C36.9657 38.3956 36.8882 38.5391 36.7332 38.6385C36.5806 38.7378 36.3846 38.7886 36.1453 38.7886C35.8924 38.7886 35.6896 38.7356 35.5347 38.6296C35.3797 38.5214 35.2886 38.3603 35.2612 38.1483H35.7808C35.799 38.2488 35.8411 38.3249 35.9084 38.3779C35.9744 38.4309 36.0553 38.4574 36.1499 38.4574C36.2376 38.4574 36.3094 38.4398 36.3641 38.4044C36.4188 38.3669 36.4461 38.3139 36.4461 38.2455C36.4461 38.1693 36.4097 38.1075 36.3368 38.06C36.2638 38.0136 36.1408 37.9695 35.9676 37.9275C35.7637 37.8812 35.6087 37.8116 35.5028 37.72C35.3957 37.6295 35.3433 37.5058 35.3433 37.3491C35.3433 37.1636 35.4139 37.0179 35.5575 36.9119C35.6999 36.8059 35.8913 36.7529 36.1317 36.7529Z"
    fill="#2B2B2B" />
  <path
    d="M38.2837 37.0355C38.466 36.8479 38.7189 36.7529 39.0448 36.7529C39.3695 36.7529 39.6235 36.8479 39.8058 37.0355C39.9904 37.221 40.0838 37.4661 40.0838 37.7686C40.0838 38.0688 39.9904 38.315 39.8058 38.506C39.6235 38.6948 39.3695 38.7886 39.0448 38.7886C38.7189 38.7886 38.466 38.6948 38.2837 38.506C38.1014 38.315 38.0103 38.0688 38.0103 37.7686C38.0103 37.4661 38.1014 37.221 38.2837 37.0355ZM38.6802 38.2587C38.7679 38.3768 38.8898 38.4353 39.0448 38.4353C39.1997 38.4353 39.3205 38.3768 39.4093 38.2587C39.5005 38.1417 39.5461 37.9783 39.5461 37.7686C39.5461 37.5599 39.5005 37.3965 39.4093 37.2784C39.3205 37.1614 39.1997 37.1018 39.0448 37.1018C38.8898 37.1018 38.7679 37.1614 38.6802 37.2784C38.5913 37.3965 38.548 37.5599 38.548 37.7686C38.548 37.9783 38.5913 38.1417 38.6802 38.2587Z"
    fill="#2B2B2B" />
  <path
    d="M42.298 36.7529C42.355 36.7529 42.404 36.7596 42.4438 36.7706V37.1724C42.2251 37.1581 42.0622 37.2033 41.9562 37.3093C41.8491 37.4153 41.7967 37.5952 41.7967 37.848V38.7356H41.2817V36.8015H41.7967V37.1548L41.9562 36.8854C42.0531 36.7971 42.167 36.7529 42.298 36.7529Z"
    fill="#2B2B2B" />
  <path
    d="M45.4608 36.8018L44.6587 38.8065C44.5516 39.0681 44.4365 39.2492 44.3123 39.3497C44.1904 39.449 44.0275 39.4998 43.8247 39.4998C43.7358 39.4998 43.6584 39.4954 43.5923 39.4865V39.1377C43.6253 39.1432 43.6766 39.1465 43.7472 39.1465C43.9227 39.1465 44.048 39.0604 44.1209 38.8904L44.1483 38.8286L43.3325 36.8018H43.9113L44.4035 38.3561L44.8911 36.8018H45.4608Z"
    fill="#2B2B2B" />
  <path d="M48.8924 37.848H48.022V37.5654H48.8924V37.848Z" fill="#2B2B2B" />
  <path
    d="M52.8613 38.7356L52.8249 38.453L52.7292 38.6605C52.5981 38.7455 52.4329 38.7886 52.2324 38.7886C52.0501 38.7886 51.8963 38.7378 51.7721 38.6385C51.6502 38.5391 51.5898 38.4 51.5898 38.2234C51.5898 38.0114 51.6821 37.848 51.8678 37.7332C52.0558 37.6162 52.3293 37.5566 52.6882 37.5566H52.8158V37.5169C52.8158 37.4407 52.8135 37.38 52.8112 37.3358C52.793 37.1802 52.6893 37.1018 52.5013 37.1018C52.2939 37.1018 52.1834 37.2122 52.1686 37.433H51.6673C51.673 37.221 51.755 37.0554 51.9134 36.934C52.0741 36.8136 52.2757 36.7529 52.5195 36.7529C53.0174 36.7529 53.2852 36.9428 53.3216 37.3226C53.3273 37.4142 53.3307 37.5124 53.3307 37.6184V38.2455C53.3307 38.3934 53.3421 38.5568 53.3672 38.7356H52.8613ZM52.4329 38.4353C52.5423 38.4353 52.6335 38.3989 52.7064 38.3249C52.7793 38.2521 52.8158 38.1516 52.8158 38.0247V37.8657C52.3566 37.837 52.1276 37.943 52.1276 38.1836C52.1276 38.3514 52.229 38.4353 52.4329 38.4353Z"
    fill="#2B2B2B" />
  <path
    d="M55.8582 36.7529C56.1317 36.7529 56.347 36.8446 56.5054 37.0267C56.666 37.2066 56.7469 37.4418 56.7469 37.7332C56.7469 38.0666 56.6558 38.3249 56.4735 38.5104C56.2912 38.6959 56.0633 38.7886 55.7899 38.7886C55.5859 38.7886 55.4299 38.7511 55.3205 38.6782L55.1883 38.4795V39.4465H54.6733V36.8015H55.1883V37.0974L55.3387 36.8854C55.4538 36.7971 55.627 36.7529 55.8582 36.7529ZM55.6896 38.4353C55.8446 38.4353 55.9688 38.3779 56.0633 38.2631C56.1602 38.1483 56.2091 37.9827 56.2091 37.7641C56.2091 37.5676 56.1636 37.4087 56.0724 37.2872C55.9813 37.1636 55.8594 37.1018 55.7078 37.1018C55.5529 37.1018 55.4264 37.1537 55.3296 37.2563C55.235 37.3601 55.1883 37.5235 55.1883 37.7465V37.8392C55.1883 38.0423 55.2362 38.1925 55.3341 38.2896C55.4344 38.3868 55.5529 38.4353 55.6896 38.4353Z"
    fill="#2B2B2B" />
  <path
    d="M59.1317 36.7529C59.4051 36.7529 59.6204 36.8446 59.7788 37.0267C59.9395 37.2066 60.0203 37.4418 60.0203 37.7332C60.0203 38.0666 59.9292 38.3249 59.7469 38.5104C59.5646 38.6959 59.3368 38.7886 59.0633 38.7886C58.8594 38.7886 58.7033 38.7511 58.5939 38.6782L58.4618 38.4795V39.4465H57.9468V36.8015H58.4618V37.0974L58.6121 36.8854C58.7272 36.7971 58.9004 36.7529 59.1317 36.7529ZM58.9631 38.4353C59.118 38.4353 59.2422 38.3779 59.3368 38.2631C59.4336 38.1483 59.4826 37.9827 59.4826 37.7641C59.4826 37.5676 59.437 37.4087 59.3459 37.2872C59.2547 37.1636 59.1328 37.1018 58.9813 37.1018C58.8263 37.1018 58.6999 37.1537 58.603 37.2563C58.5085 37.3601 58.4618 37.5235 58.4618 37.7465V37.8392C58.4618 38.0423 58.5096 38.1925 58.6076 38.2896C58.7078 38.3868 58.8263 38.4353 58.9631 38.4353Z"
    fill="#2B2B2B" />
  <path
    d="M62.237 36.7529C62.2939 36.7529 62.3429 36.7596 62.3828 36.7706V37.1724C62.1641 37.1581 62.0011 37.2033 61.8952 37.3093C61.7881 37.4153 61.7357 37.5952 61.7357 37.848V38.7356H61.2207V36.8015H61.7357V37.1548L61.8952 36.8854C61.992 36.7971 62.106 36.7529 62.237 36.7529Z"
    fill="#2B2B2B" />
  <path
    d="M65.3175 37.7288C65.3175 37.7995 65.3153 37.8569 65.313 37.901H63.8957C63.923 38.2576 64.0757 38.4353 64.356 38.4353C64.4676 38.4353 64.561 38.4066 64.634 38.347C64.7069 38.2885 64.7524 38.209 64.7707 38.1086H65.2902C65.2378 38.3294 65.1273 38.4994 64.9575 38.6164C64.79 38.7312 64.585 38.7886 64.3423 38.7886C64.0563 38.7886 63.8228 38.7025 63.6405 38.5281C63.4604 38.3547 63.3716 38.1042 63.3716 37.7774C63.3716 37.4771 63.4639 37.232 63.6496 37.04C63.8376 36.849 64.0825 36.7529 64.3833 36.7529C64.6772 36.7529 64.9074 36.8457 65.0715 37.0311C65.2355 37.2166 65.3175 37.4495 65.3175 37.7288ZM64.3605 37.1018C64.1053 37.1018 63.9549 37.2596 63.9093 37.5743H64.7843C64.7502 37.2596 64.6089 37.1018 64.3605 37.1018Z"
    fill="#2B2B2B" />
  <path
    d="M67.3994 36.7529C67.6637 36.7529 67.8757 36.8225 68.0374 36.9605C68.2015 37.0996 68.2926 37.2784 68.3109 37.4992H67.8005C67.7549 37.2342 67.6182 37.1018 67.3903 37.1018C67.2502 37.1018 67.1396 37.1581 67.0576 37.2696C66.9779 37.3789 66.9391 37.5389 66.9391 37.7509C66.9391 37.9805 66.9779 38.1527 67.0576 38.2675C67.1396 38.3801 67.249 38.4353 67.3857 38.4353C67.4883 38.4353 67.5749 38.4044 67.6455 38.3426C67.7184 38.2786 67.7663 38.1869 67.7913 38.0688H68.3063C68.263 38.3018 68.1571 38.4795 67.9873 38.6031C67.8198 38.7268 67.609 38.7886 67.3538 38.7886C67.0713 38.7886 66.8411 38.7025 66.6657 38.5281C66.4891 38.3547 66.4014 38.1064 66.4014 37.7818C66.4014 37.4639 66.4948 37.2144 66.6839 37.0311C66.8753 36.8457 67.1134 36.7529 67.3994 36.7529Z"
    fill="#2B2B2B" />
  <path
    d="M69.554 36.1571C69.6087 36.1074 69.6782 36.082 69.7637 36.082C69.848 36.082 69.9163 36.1074 69.9688 36.1571C70.02 36.2079 70.0462 36.2708 70.0462 36.347C70.0462 36.4265 70.02 36.4916 69.9688 36.5413C69.9163 36.5887 69.848 36.6119 69.7637 36.6119C69.6782 36.6119 69.6087 36.5887 69.554 36.5413C69.5016 36.4916 69.4766 36.4265 69.4766 36.347C69.4766 36.2708 69.5016 36.2079 69.554 36.1571ZM70.0189 38.7359H69.5039V36.8018H70.0189V38.7359Z"
    fill="#2B2B2B" />
  <path
    d="M72.5215 38.7356L72.485 38.453L72.3893 38.6605C72.2583 38.7455 72.0931 38.7886 71.8926 38.7886C71.7103 38.7886 71.5565 38.7378 71.4323 38.6385C71.3104 38.5391 71.25 38.4 71.25 38.2234C71.25 38.0114 71.3423 37.848 71.528 37.7332C71.716 37.6162 71.9894 37.5566 72.3483 37.5566H72.4759V37.5169C72.4759 37.4407 72.4736 37.38 72.4714 37.3358C72.4531 37.1802 72.3494 37.1018 72.1615 37.1018C71.9541 37.1018 71.8436 37.2122 71.8288 37.433H71.3275C71.3332 37.221 71.4152 37.0554 71.5736 36.934C71.7342 36.8136 71.9359 36.7529 72.1797 36.7529C72.6776 36.7529 72.9453 36.9428 72.9818 37.3226C72.9875 37.4142 72.9909 37.5124 72.9909 37.6184V38.2455C72.9909 38.3934 73.0023 38.5568 73.0273 38.7356H72.5215ZM72.0931 38.4353C72.2025 38.4353 72.2936 38.3989 72.3665 38.3249C72.4395 38.2521 72.4759 38.1516 72.4759 38.0247V37.8657C72.0168 37.837 71.7878 37.943 71.7878 38.1836C71.7878 38.3514 71.8892 38.4353 72.0931 38.4353Z"
    fill="#2B2B2B" />
  <path
    d="M74.9538 37.1464V38.0428C74.9538 38.1223 74.9538 38.1786 74.9538 38.2106C74.9629 38.3078 74.9914 38.3718 75.0404 38.4005C75.0916 38.427 75.1885 38.4347 75.332 38.4226V38.7494C75.2227 38.767 75.1087 38.7759 74.9902 38.7759C74.7988 38.7759 74.6621 38.7449 74.5801 38.6831C74.5003 38.6213 74.4548 38.5197 74.4434 38.3784C74.4365 38.3232 74.4342 38.2305 74.4342 38.1002V37.1464H74.1426V36.8153H74.4342V36.3428H74.9538V36.8153H75.3639V37.1464H74.9538Z"
    fill="#2B2B2B" />
  <path
    d="M78.3595 37.7288C78.3595 37.7995 78.3573 37.8569 78.355 37.901H76.9377C76.965 38.2576 77.1177 38.4353 77.3979 38.4353C77.5096 38.4353 77.603 38.4066 77.6759 38.347C77.7489 38.2885 77.7944 38.209 77.8127 38.1086H78.3322C78.2798 38.3294 78.1693 38.4994 77.9995 38.6164C77.832 38.7312 77.627 38.7886 77.3843 38.7886C77.0983 38.7886 76.8647 38.7025 76.6825 38.5281C76.5024 38.3547 76.4136 38.1042 76.4136 37.7774C76.4136 37.4771 76.5059 37.232 76.6916 37.04C76.8796 36.849 77.1245 36.7529 77.4253 36.7529C77.7192 36.7529 77.9494 36.8457 78.1134 37.0311C78.2775 37.2166 78.3595 37.4495 78.3595 37.7288ZM77.4025 37.1018C77.1473 37.1018 76.9969 37.2596 76.9513 37.5743H77.8263C77.7922 37.2596 77.6509 37.1018 77.4025 37.1018Z"
    fill="#2B2B2B" />
  <path
    d="M57.3649 2.1543C57.644 2.1543 57.8571 2.22274 58.0029 2.35742C58.151 2.49321 58.2399 2.67425 58.2673 2.90056H57.7705C57.7546 2.77692 57.7113 2.68198 57.6383 2.61354C57.5677 2.54288 57.4709 2.50756 57.3467 2.50756C57.2464 2.50756 57.1644 2.53295 57.1006 2.58263C57.0368 2.6301 57.0049 2.69964 57.0049 2.79017C57.0049 2.89063 57.0425 2.97011 57.1188 3.02862C57.194 3.08492 57.3296 3.1346 57.5244 3.17875C57.791 3.23837 57.987 3.32779 58.1123 3.44811C58.2399 3.56955 58.3037 3.7252 58.3037 3.91619C58.3037 4.13145 58.2148 4.30256 58.0394 4.42841C57.8662 4.55537 57.6532 4.61829 57.4014 4.61829C57.1029 4.61829 56.8647 4.55537 56.6859 4.42841C56.5093 4.30256 56.4102 4.11489 56.3896 3.86761H56.8864C56.9137 3.99457 56.973 4.09282 57.0641 4.16347C57.1553 4.23191 57.2646 4.26503 57.3923 4.26503C57.5073 4.26503 57.603 4.23854 57.6794 4.18555C57.7546 4.13035 57.7933 4.05639 57.7933 3.96476C57.7933 3.8654 57.7546 3.78371 57.6794 3.72189C57.6064 3.66007 57.4811 3.60929 57.3057 3.56734C57.0322 3.50331 56.8271 3.4172 56.6904 3.31123C56.556 3.20525 56.4899 3.0507 56.4899 2.84757C56.4899 2.63561 56.5742 2.46782 56.7451 2.34417C56.9149 2.21833 57.1211 2.1543 57.3649 2.1543Z"
    fill="#2B2B2B" />
  <path d="M57.6038 7.71646H57.1162V5.34961H57.6038V7.71646Z" fill="#2B2B2B" />
  <path
    d="M58.4326 10.8629H57.7627L56.7555 9.06573C56.7669 9.281 56.7738 9.52386 56.7738 9.79433V10.8629H56.2861V8.49609H56.9333L57.9632 10.3286C57.9507 10.1167 57.945 9.86829 57.945 9.58237V8.49609H58.4281L58.4326 10.8629Z"
    fill="#2B2B2B" />
  <path
    d="M57.4079 11.5938C57.7269 11.5938 57.9753 11.6688 58.1553 11.819C58.3341 11.9691 58.4378 12.1667 58.4652 12.4107V12.446H57.9775L57.973 12.4107C57.9092 12.1016 57.7189 11.947 57.4033 11.947C57.2028 11.947 57.041 12.0254 56.9202 12.181C56.8018 12.3345 56.7425 12.5453 56.7425 12.8125C56.7425 13.0984 56.8018 13.3192 56.9202 13.4749C57.041 13.6283 57.1994 13.7045 57.3942 13.7045C57.5492 13.7045 57.6733 13.6625 57.7679 13.5764C57.8613 13.4914 57.9251 13.3733 57.9593 13.2232L57.9684 13.1878H58.4515V13.2232C58.4242 13.4793 58.3148 13.6824 58.1234 13.8325C57.932 13.9827 57.6813 14.0577 57.3714 14.0577C57.0273 14.0577 56.7516 13.9496 56.542 13.731C56.3324 13.5102 56.2275 13.2132 56.2275 12.839C56.2275 12.4592 56.3381 12.1579 56.5602 11.9338C56.7813 11.7075 57.0638 11.5938 57.4079 11.5938Z"
    fill="#2B2B2B" />
  <path
    d="M58.3032 16.7796V17.1549H56.5396V14.7881H58.2668V15.159H57.0272V15.7816H58.1802V16.157H57.0272V16.7796H58.3032Z"
    fill="#2B2B2B" />
  <path
    d="M57.1683 23.0728H58.2028V23.4482H56.4209V23.223L57.2412 22.4458C57.4144 22.2813 57.534 22.1499 57.6012 22.0528C57.6673 21.9534 57.7015 21.8485 57.7015 21.7393C57.7015 21.6333 57.6707 21.5483 57.6104 21.4831C57.5488 21.4158 57.4622 21.3816 57.3506 21.3816C57.2321 21.3816 57.141 21.4191 57.0771 21.492C57.0133 21.5626 56.9735 21.6708 56.9587 21.8143L56.9541 21.8497H56.471V21.8143C56.4984 21.5615 56.5907 21.3672 56.749 21.2314C56.9062 21.0968 57.1227 21.0283 57.3962 21.0283C57.6605 21.0283 57.8633 21.0901 58.0068 21.2138C58.1493 21.3374 58.221 21.5041 58.221 21.7128C58.221 21.8607 58.1777 21.9987 58.0934 22.1278C58.008 22.2548 57.8496 22.427 57.6195 22.6445L57.1683 23.0728Z"
    fill="#2B2B2B" />
  <path
    d="M57.3187 24.1787C57.9499 24.1787 58.2666 24.5894 58.2666 25.4107C58.2666 26.232 57.9499 26.6427 57.3187 26.6427C56.6829 26.6427 56.3662 26.232 56.3662 25.4107C56.3662 24.5894 56.6829 24.1787 57.3187 24.1787ZM56.9906 26.0775C57.0601 26.2188 57.1694 26.2894 57.3187 26.2894C57.4668 26.2894 57.5762 26.2188 57.6468 26.0775C57.7163 25.934 57.7516 25.711 57.7516 25.4107C57.7516 25.1082 57.7163 24.8852 57.6468 24.7439C57.5762 24.6026 57.4668 24.532 57.3187 24.532C57.166 24.532 57.0555 24.6026 56.986 24.7439C56.9188 24.8852 56.8857 25.1082 56.8857 25.4107C56.8857 25.711 56.9199 25.934 56.9906 26.0775Z"
    fill="#2B2B2B" />
  <path
    d="M57.1683 29.3648H58.2028V29.7401H56.4209V29.5149L57.2412 28.7378C57.4144 28.5733 57.534 28.4419 57.6012 28.3448C57.6673 28.2454 57.7015 28.1405 57.7015 28.0313C57.7015 27.9253 57.6707 27.8403 57.6104 27.7751C57.5488 27.7078 57.4622 27.6736 57.3506 27.6736C57.2321 27.6736 57.141 27.7111 57.0771 27.784C57.0133 27.8546 56.9735 27.9628 56.9587 28.1063L56.9541 28.1416H56.471V28.1063C56.4984 27.8535 56.5907 27.6592 56.749 27.5234C56.9062 27.3888 57.1227 27.3203 57.3962 27.3203C57.6605 27.3203 57.8633 27.3821 58.0068 27.5058C58.1493 27.6294 58.221 27.7961 58.221 28.0048C58.221 28.1527 58.1777 28.2907 58.0934 28.4198C58.008 28.5468 57.8496 28.719 57.6195 28.9365L57.1683 29.3648Z"
    fill="#2B2B2B" />
  <path
    d="M57.7336 31.633C58.0731 31.7103 58.244 31.9002 58.244 32.2027C58.244 32.4234 58.1551 32.6023 57.9797 32.737C57.8031 32.8694 57.5752 32.9357 57.2961 32.9357C57.0192 32.9357 56.7993 32.8727 56.6353 32.7458C56.4712 32.6199 56.3755 32.4356 56.3481 32.1938V32.1585H56.8358L56.8403 32.1938C56.8608 32.3153 56.911 32.4102 56.9907 32.4809C57.0693 32.5493 57.1707 32.5824 57.2961 32.5824C57.4237 32.5824 57.5262 32.5504 57.606 32.4853C57.688 32.4179 57.729 32.3296 57.729 32.2203C57.729 31.9819 57.5661 31.8582 57.2414 31.8494H57.1593V31.5226L57.2414 31.5182C57.3713 31.5127 57.4749 31.4774 57.5513 31.4122C57.6299 31.3449 57.6698 31.2555 57.6698 31.1429C57.6698 31.049 57.6379 30.9729 57.5741 30.9133C57.5125 30.8547 57.4294 30.8249 57.3234 30.8249C57.214 30.8249 57.1252 30.8592 57.0591 30.9265C56.9953 30.9949 56.9565 31.0855 56.9451 31.2003L56.9406 31.2312H56.4575V31.2003C56.478 30.9861 56.568 30.8106 56.7264 30.6748C56.8836 30.5401 57.1012 30.4717 57.3781 30.4717C57.6333 30.4717 57.8315 30.5291 57.9751 30.6439C58.1175 30.7587 58.1893 30.9077 58.1893 31.0899C58.1893 31.2257 58.1494 31.3416 58.0708 31.4387C57.991 31.5337 57.8794 31.5977 57.7336 31.633Z"
    fill="#2B2B2B" />
  <path
    d="M22.5124 9.76883V1H30.9201V9.76883H36.0504V15.9636H30.9201V23.4409C30.9201 25.6142 31.5539 26.7008 32.8238 26.7008C33.1396 26.7008 33.4714 26.6407 33.8195 26.5182C34.1663 26.3969 34.4348 26.2733 34.6261 26.1486L34.9119 25.966L37 32.5304C35.1954 33.5101 33.1384 34 30.8279 34C29.2446 34 27.8836 33.7328 26.7439 33.1984C25.6031 32.6617 24.7399 31.9414 24.1534 31.0385C23.5657 30.1366 23.1451 29.1881 22.8904 28.1927C22.638 27.1985 22.5124 26.1352 22.5124 25.004V15.9636H19V9.76883H22.5124Z"
    fill="#785B5B" />
  <path
    d="M39.1562 14.7246C37.7187 13.1839 37 11.2947 37 9.05598C37 6.81501 37.7187 4.91813 39.1562 3.36533C40.596 1.81253 42.4276 1.03613 44.6501 1.03613C46.6895 1.03613 48.3696 1.66585 49.6903 2.92419V1.48168H55V16.595H49.7487V14.8878H49.6903C48.3696 16.3204 46.6895 17.0361 44.6501 17.0361C42.4276 17.0361 40.596 16.2664 39.1562 14.7246ZM43.6708 6.48857C42.9813 7.15689 42.6376 8.01049 42.6376 9.05157C42.6376 10.0927 42.9667 10.9429 43.6259 11.6013C44.2874 12.2608 45.1588 12.5895 46.2403 12.5895C47.2791 12.5895 48.1338 12.2564 48.8053 11.5881C49.4758 10.9176 49.8116 10.0728 49.8116 9.05157C49.8116 8.01049 49.4657 7.15689 48.7739 6.48857C48.0844 5.82135 47.2398 5.48719 46.2403 5.48719C45.2184 5.48719 44.3626 5.82135 43.6708 6.48857Z"
    fill="#785B5B" />
  <path
    d="M39.1562 31.6884C37.7187 30.1478 37 28.2586 37 26.0199C37 23.7789 37.7187 21.882 39.1562 20.3292C40.596 18.7764 42.4276 18 44.6501 18C46.6895 18 48.3696 18.6297 49.6903 19.8881V18.4455H55V33.5589H49.7487V31.8517H49.6903C48.3696 33.2843 46.6895 34 44.6501 34C42.4276 34 40.596 33.2302 39.1562 31.6884ZM43.6708 23.4524C42.9813 24.1208 42.6376 24.9744 42.6376 26.0154C42.6376 27.0565 42.9667 27.9068 43.6259 28.5652C44.2874 29.2247 45.1588 29.5534 46.2403 29.5534C47.2791 29.5534 48.1338 29.2203 48.8053 28.552C49.4758 27.8814 49.8116 27.0367 49.8116 26.0154C49.8116 24.9744 49.4657 24.1208 48.7739 23.4524C48.0844 22.7852 47.2398 22.4511 46.2403 22.4511C45.2184 22.4511 44.3626 22.7852 43.6708 23.4524Z"
    fill="#785B5B" />
</svg>