<svg width="78" height="40" viewBox="0 0 78 40" fill="none" xmlns="http://www.w3.org/2000/svg">
<g id="Black And White Aesthetic Minimalist Modern Simple Typography Coconut Cosmetics Logo 2" clip-path="url(#clip0_54811_953)">
<g id="Group">
<g id="Group_2">
<g id="Group_3">
<path id="Vector" d="M21.5854 9.25115V0.556519H29.898V9.25115H34.9702V15.3935H29.898V22.8075C29.898 24.9624 30.5246 26.0399 31.7801 26.0399C32.0923 26.0399 32.4204 25.9803 32.7645 25.8588C33.1074 25.7385 33.3729 25.616 33.562 25.4923L33.8446 25.3113L35.909 31.8201C34.1248 32.7916 32.0911 33.2773 29.8068 33.2773C28.2414 33.2773 26.8958 33.0124 25.769 32.4825C24.6411 31.9504 23.7878 31.2361 23.2078 30.3408C22.6268 29.4466 22.2109 28.5061 21.9591 27.5192C21.7096 26.5333 21.5854 25.4791 21.5854 24.3575V15.3935H18.1128V9.25115H21.5854Z" fill="#785B5B"/>
</g>
</g>
</g>
<g id="Group_4">
<g id="Group_5">
<g id="Group_6">
<path id="Vector_2" d="M37.728 15.2952C36.2697 13.753 35.5405 11.862 35.5405 9.62099C35.5405 7.37779 36.2697 5.47901 37.728 3.92466C39.1886 2.37031 41.0469 1.59314 43.3016 1.59314C45.3706 1.59314 47.075 2.22349 48.4149 3.48309V2.03913H53.8016V17.1675H48.4741V15.4586H48.4149C47.075 16.8926 45.3706 17.6091 43.3016 17.6091C41.0469 17.6091 39.1886 16.8386 37.728 15.2952ZM42.3081 7.05102C41.6086 7.72001 41.2599 8.57446 41.2599 9.61658C41.2599 10.6587 41.5938 11.5098 42.2625 12.1689C42.9336 12.829 43.8177 13.158 44.9149 13.158C45.9688 13.158 46.8358 12.8246 47.5171 12.1556C48.1973 11.4844 48.5379 10.6388 48.5379 9.61658C48.5379 8.57446 48.187 7.72001 47.4852 7.05102C46.7856 6.38314 45.9289 6.04864 44.9149 6.04864C43.8781 6.04864 43.0099 6.38314 42.3081 7.05102Z" fill="#785B5B"/>
</g>
</g>
</g>
<g id="Group_7">
<g id="Group_8">
<g id="Group_9">
<path id="Vector_3" d="M37.728 31.5285C36.2697 29.9863 35.5405 28.0953 35.5405 25.8543C35.5405 23.6111 36.2697 21.7123 37.728 20.1579C39.1886 18.6036 41.0469 17.8264 43.3016 17.8264C45.3706 17.8264 47.075 18.4568 48.4149 19.7164V18.2724H53.8016V33.4008H48.4741V31.6919H48.4149C47.075 33.1259 45.3706 33.8424 43.3016 33.8424C41.0469 33.8424 39.1886 33.0718 37.728 31.5285ZM42.3081 23.2843C41.6086 23.9533 41.2599 24.8077 41.2599 25.8499C41.2599 26.892 41.5938 27.7431 42.2625 28.4022C42.9336 29.0623 43.8177 29.3913 44.9149 29.3913C45.9688 29.3913 46.8358 29.0579 47.5171 28.3889C48.1973 27.7177 48.5379 26.8721 48.5379 25.8499C48.5379 24.8077 48.187 23.9533 47.4852 23.2843C46.7856 22.6164 45.9289 22.2819 44.9149 22.2819C43.8781 22.2819 43.0099 22.6164 42.3081 23.2843Z" fill="#785B5B"/>
</g>
</g>
</g>
<g id="Group_10">
<g id="Group_11">
<g id="Group_12">
<path id="Vector_4" d="M1.47477 37.1463V38.0427C1.47477 38.1222 1.47477 38.1785 1.47477 38.2105C1.48389 38.3077 1.51237 38.3717 1.56136 38.4004C1.61263 38.4269 1.70947 38.4346 1.85303 38.4225V38.7492C1.74365 38.7669 1.62972 38.7757 1.51123 38.7757C1.31982 38.7757 1.18311 38.7448 1.10107 38.683C1.02132 38.6212 0.975749 38.5196 0.964355 38.3783C0.957519 38.3231 0.955241 38.2304 0.955241 38.1001V37.1463H0.663574V36.8151H0.955241V36.3427H1.47477V36.8151H1.88493V37.1463H1.47477Z" fill="#2B2B2B"/>
</g>
</g>
</g>
<g id="Group_13">
<g id="Group_14">
<g id="Group_15">
<path id="Vector_5" d="M4.93066 37.292C4.93978 37.3803 4.94434 37.4984 4.94434 37.6453V38.736H4.42936V37.7159C4.42936 37.6011 4.42594 37.5117 4.42025 37.4465C4.40202 37.2169 4.27441 37.1021 4.03743 37.1021C3.90299 37.1054 3.79362 37.1684 3.70931 37.292C3.62728 37.4134 3.58626 37.6 3.58626 37.8528V38.736H3.07129V36.0468H3.58626V37.1154L3.74121 36.8857C3.87109 36.7974 4.03288 36.7533 4.22428 36.7533C4.43392 36.7533 4.59798 36.8007 4.71647 36.8946C4.83724 36.9895 4.90902 37.122 4.93066 37.292Z" fill="#2B2B2B"/>
</g>
</g>
</g>
<g id="Group_16">
<g id="Group_17">
<g id="Group_18">
<path id="Vector_6" d="M7.27848 36.7533C7.33545 36.7533 7.38444 36.7599 7.42432 36.771V37.1728C7.20557 37.1584 7.04264 37.2037 6.93669 37.3097C6.82959 37.4157 6.77718 37.5956 6.77718 37.8484V38.736H6.26221V36.8019H6.77718V37.1551L6.93669 36.8858C7.03353 36.7975 7.14746 36.7533 7.27848 36.7533Z" fill="#2B2B2B"/>
</g>
</g>
</g>
<g id="Group_19">
<g id="Group_20">
<g id="Group_21">
<path id="Vector_7" d="M10.359 37.7292C10.359 37.7998 10.3568 37.8572 10.3545 37.9014H8.93717C8.96452 38.258 9.11719 38.4357 9.39746 38.4357C9.50911 38.4357 9.60254 38.407 9.67546 38.3474C9.74837 38.2889 9.79395 38.2094 9.81217 38.1089H10.3317C10.2793 38.3297 10.1688 38.4997 9.99902 38.6167C9.83154 38.7316 9.62646 38.789 9.38379 38.789C9.09782 38.789 8.86426 38.7029 8.68197 38.5284C8.50195 38.3551 8.41309 38.1045 8.41309 37.7778C8.41309 37.4775 8.50537 37.2324 8.69108 37.0403C8.87907 36.8493 9.12402 36.7533 9.4248 36.7533C9.71875 36.7533 9.94889 36.846 10.113 37.0315C10.277 37.217 10.359 37.4499 10.359 37.7292ZM9.40202 37.1021C9.14681 37.1021 8.99642 37.26 8.95085 37.5746H9.82585C9.79167 37.26 9.65039 37.1021 9.40202 37.1021Z" fill="#2B2B2B"/>
</g>
</g>
</g>
<g id="Group_22">
<g id="Group_23">
<g id="Group_24">
<path id="Vector_8" d="M13.3888 37.7292C13.3888 37.7998 13.3866 37.8572 13.3843 37.9014H11.967C11.9943 38.258 12.147 38.4357 12.4272 38.4357C12.5389 38.4357 12.6323 38.407 12.7052 38.3474C12.7782 38.2889 12.8237 38.2094 12.842 38.1089H13.3615C13.3091 38.3297 13.1986 38.4997 13.0288 38.6167C12.8613 38.7316 12.6562 38.789 12.4136 38.789C12.1276 38.789 11.894 38.7029 11.7118 38.5284C11.5317 38.3551 11.4429 38.1045 11.4429 37.7778C11.4429 37.4775 11.5352 37.2324 11.7209 37.0403C11.9089 36.8493 12.1538 36.7533 12.4546 36.7533C12.7485 36.7533 12.9787 36.846 13.1427 37.0315C13.3068 37.217 13.3888 37.4499 13.3888 37.7292ZM12.4318 37.1021C12.1766 37.1021 12.0262 37.26 11.9806 37.5746H12.8556C12.8215 37.26 12.6802 37.1021 12.4318 37.1021Z" fill="#2B2B2B"/>
</g>
</g>
</g>
<g id="Group_25">
<g id="Group_26">
<g id="Group_27">
<path id="Vector_9" d="M16.952 37.8484H16.0815V37.5658H16.952V37.8484Z" fill="#2B2B2B"/>
</g>
</g>
</g>
<g id="Group_28">
<g id="Group_29">
<g id="Group_30">
<path id="Vector_10" d="M20.9204 38.736L20.884 38.4534L20.7882 38.6609C20.6572 38.7459 20.492 38.789 20.2915 38.789C20.1092 38.789 19.9554 38.7382 19.8312 38.6388C19.7093 38.5395 19.6489 38.4004 19.6489 38.2237C19.6489 38.0118 19.7412 37.8484 19.9269 37.7336C20.1149 37.6166 20.3883 37.557 20.7472 37.557H20.8748V37.5172C20.8748 37.4411 20.8726 37.3803 20.8703 37.3362C20.8521 37.1805 20.7484 37.1021 20.5604 37.1021C20.353 37.1021 20.2425 37.2125 20.2277 37.4333H19.7264C19.7321 37.2214 19.8141 37.0558 19.9725 36.9343C20.1331 36.814 20.3348 36.7533 20.5786 36.7533C21.0765 36.7533 21.3442 36.9432 21.3807 37.3229C21.3864 37.4146 21.3898 37.5128 21.3898 37.6188V38.2458C21.3898 38.3938 21.4012 38.5571 21.4263 38.736H20.9204ZM20.492 38.4357C20.6014 38.4357 20.6925 38.3993 20.7655 38.3253C20.8384 38.2524 20.8748 38.152 20.8748 38.025V37.8661C20.4157 37.8374 20.1867 37.9433 20.1867 38.184C20.1867 38.3518 20.2881 38.4357 20.492 38.4357Z" fill="#2B2B2B"/>
</g>
</g>
</g>
<g id="Group_31">
<g id="Group_32">
<g id="Group_33">
<path id="Vector_11" d="M23.5942 36.7533C23.8586 36.7533 24.0705 36.8228 24.2323 36.9608C24.3963 37.0999 24.4875 37.2788 24.5057 37.4996H23.9953C23.9497 37.2346 23.813 37.1021 23.5851 37.1021C23.445 37.1021 23.3345 37.1584 23.2524 37.2699C23.1727 37.3792 23.134 37.5393 23.134 37.7513C23.134 37.9809 23.1727 38.1531 23.2524 38.2679C23.3345 38.3805 23.4438 38.4357 23.5806 38.4357C23.6831 38.4357 23.7697 38.4048 23.8403 38.343C23.9132 38.2789 23.9611 38.1873 23.9862 38.0692H24.5011C24.4578 38.3021 24.3519 38.4799 24.1821 38.6035C24.0146 38.7271 23.8039 38.789 23.5487 38.789C23.2661 38.789 23.036 38.7029 22.8605 38.5284C22.6839 38.3551 22.5962 38.1067 22.5962 37.7822C22.5962 37.4642 22.6896 37.2147 22.8787 37.0315C23.0701 36.846 23.3083 36.7533 23.5942 36.7533Z" fill="#2B2B2B"/>
</g>
</g>
</g>
<g id="Group_34">
<g id="Group_35">
<g id="Group_36">
<path id="Vector_12" d="M26.5601 36.7533C26.8244 36.7533 27.0363 36.8228 27.1981 36.9608C27.3621 37.0999 27.4533 37.2788 27.4715 37.4996H26.9611C26.9155 37.2346 26.7788 37.1021 26.5509 37.1021C26.4108 37.1021 26.3003 37.1584 26.2183 37.2699C26.1385 37.3792 26.0998 37.5393 26.0998 37.7513C26.0998 37.9809 26.1385 38.1531 26.2183 38.2679C26.3003 38.3805 26.4097 38.4357 26.5464 38.4357C26.6489 38.4357 26.7355 38.4048 26.8062 38.343C26.8791 38.2789 26.9269 38.1873 26.952 38.0692H27.467C27.4237 38.3021 27.3177 38.4799 27.1479 38.6035C26.9805 38.7271 26.7697 38.789 26.5145 38.789C26.2319 38.789 26.0018 38.7029 25.8263 38.5284C25.6497 38.3551 25.562 38.1067 25.562 37.7822C25.562 37.4642 25.6554 37.2147 25.8446 37.0315C26.036 36.846 26.2741 36.7533 26.5601 36.7533Z" fill="#2B2B2B"/>
</g>
</g>
</g>
<g id="Group_37">
<g id="Group_38">
<g id="Group_39">
<path id="Vector_13" d="M30.4743 37.7292C30.4743 37.7998 30.472 37.8572 30.4697 37.9014H29.0524C29.0798 38.258 29.2324 38.4357 29.5127 38.4357C29.6243 38.4357 29.7178 38.407 29.7907 38.3474C29.8636 38.2889 29.9092 38.2094 29.9274 38.1089H30.4469C30.3945 38.3297 30.284 38.4997 30.1143 38.6167C29.9468 38.7316 29.7417 38.789 29.499 38.789C29.2131 38.789 28.9795 38.7029 28.7972 38.5284C28.6172 38.3551 28.5283 38.1045 28.5283 37.7778C28.5283 37.4775 28.6206 37.2324 28.8063 37.0403C28.9943 36.8493 29.2393 36.7533 29.54 36.7533C29.834 36.7533 30.0641 36.846 30.2282 37.0315C30.3923 37.217 30.4743 37.4499 30.4743 37.7292ZM29.5173 37.1021C29.262 37.1021 29.1117 37.26 29.0661 37.5746H29.9411C29.9069 37.26 29.7656 37.1021 29.5173 37.1021Z" fill="#2B2B2B"/>
</g>
</g>
</g>
<g id="Group_40">
<g id="Group_41">
<g id="Group_42">
<path id="Vector_14" d="M32.4056 36.7533C32.6357 36.7533 32.8203 36.8096 32.957 36.9211C33.0938 37.0304 33.1735 37.1772 33.1986 37.3627H32.679C32.6449 37.1772 32.5435 37.0845 32.3737 37.0845C32.2974 37.0845 32.2381 37.1043 32.196 37.1419C32.1561 37.1772 32.1367 37.2258 32.1367 37.2876C32.1367 37.3616 32.1698 37.4201 32.237 37.4642C32.3031 37.5084 32.4215 37.5514 32.5924 37.5923C32.8078 37.6453 32.9684 37.7192 33.0755 37.8131C33.1849 37.908 33.2396 38.0405 33.2396 38.2105C33.2396 38.396 33.1621 38.5395 33.0072 38.6388C32.8545 38.7382 32.6585 38.789 32.4193 38.789C32.1663 38.789 31.9635 38.736 31.8086 38.63C31.6536 38.5218 31.5625 38.3606 31.5352 38.1487H32.0547C32.0729 38.2491 32.1151 38.3253 32.1823 38.3783C32.2484 38.4313 32.3293 38.4578 32.4238 38.4578C32.5116 38.4578 32.5833 38.4401 32.638 38.4048C32.6927 38.3673 32.7201 38.3143 32.7201 38.2458C32.7201 38.1697 32.6836 38.1078 32.6107 38.0604C32.5378 38.014 32.4147 37.9698 32.2415 37.9279C32.0376 37.8815 31.8826 37.812 31.7767 37.7203C31.6696 37.6298 31.6172 37.5062 31.6172 37.3494C31.6172 37.164 31.6878 37.0182 31.8314 36.9123C31.9738 36.8063 32.1652 36.7533 32.4056 36.7533Z" fill="#2B2B2B"/>
</g>
</g>
</g>
<g id="Group_43">
<g id="Group_44">
<g id="Group_45">
<path id="Vector_15" d="M35.1317 36.7533C35.3618 36.7533 35.5464 36.8096 35.6831 36.9211C35.8198 37.0304 35.8996 37.1772 35.9246 37.3627H35.4051C35.3709 37.1772 35.2695 37.0845 35.0998 37.0845C35.0234 37.0845 34.9642 37.1043 34.922 37.1419C34.8822 37.1772 34.8628 37.2258 34.8628 37.2876C34.8628 37.3616 34.8958 37.4201 34.9631 37.4642C35.0291 37.5084 35.1476 37.5514 35.3185 37.5923C35.5339 37.6453 35.6945 37.7192 35.8016 37.8131C35.911 37.908 35.9657 38.0405 35.9657 38.2105C35.9657 38.396 35.8882 38.5395 35.7332 38.6388C35.5806 38.7382 35.3846 38.789 35.1453 38.789C34.8924 38.789 34.6896 38.736 34.5347 38.63C34.3797 38.5218 34.2886 38.3606 34.2612 38.1487H34.7808C34.799 38.2491 34.8411 38.3253 34.9084 38.3783C34.9744 38.4313 35.0553 38.4578 35.1499 38.4578C35.2376 38.4578 35.3094 38.4401 35.3641 38.4048C35.4188 38.3673 35.4461 38.3143 35.4461 38.2458C35.4461 38.1697 35.4097 38.1078 35.3368 38.0604C35.2638 38.014 35.1408 37.9698 34.9676 37.9279C34.7637 37.8815 34.6087 37.812 34.5028 37.7203C34.3957 37.6298 34.3433 37.5062 34.3433 37.3494C34.3433 37.164 34.4139 37.0182 34.5575 36.9123C34.6999 36.8063 34.8913 36.7533 35.1317 36.7533Z" fill="#2B2B2B"/>
</g>
</g>
</g>
<g id="Group_46">
<g id="Group_47">
<g id="Group_48">
<path id="Vector_16" d="M37.2837 37.0359C37.466 36.8482 37.7189 36.7533 38.0448 36.7533C38.3695 36.7533 38.6235 36.8482 38.8058 37.0359C38.9904 37.2214 39.0838 37.4664 39.0838 37.7689C39.0838 38.0692 38.9904 38.3154 38.8058 38.5064C38.6235 38.6951 38.3695 38.789 38.0448 38.789C37.7189 38.789 37.466 38.6951 37.2837 38.5064C37.1014 38.3154 37.0103 38.0692 37.0103 37.7689C37.0103 37.4664 37.1014 37.2214 37.2837 37.0359ZM37.6802 38.2591C37.7679 38.3772 37.8898 38.4357 38.0448 38.4357C38.1997 38.4357 38.3205 38.3772 38.4093 38.2591C38.5005 38.1421 38.5461 37.9787 38.5461 37.7689C38.5461 37.5603 38.5005 37.3969 38.4093 37.2788C38.3205 37.1618 38.1997 37.1021 38.0448 37.1021C37.8898 37.1021 37.7679 37.1618 37.6802 37.2788C37.5913 37.3969 37.548 37.5603 37.548 37.7689C37.548 37.9787 37.5913 38.1421 37.6802 38.2591Z" fill="#2B2B2B"/>
</g>
</g>
</g>
<g id="Group_49">
<g id="Group_50">
<g id="Group_51">
<path id="Vector_17" d="M41.298 36.7533C41.355 36.7533 41.404 36.7599 41.4438 36.771V37.1728C41.2251 37.1584 41.0622 37.2037 40.9562 37.3097C40.8491 37.4157 40.7967 37.5956 40.7967 37.8484V38.736H40.2817V36.8019H40.7967V37.1551L40.9562 36.8858C41.0531 36.7975 41.167 36.7533 41.298 36.7533Z" fill="#2B2B2B"/>
</g>
</g>
</g>
<g id="Group_52">
<g id="Group_53">
<g id="Group_54">
<path id="Vector_18" d="M44.4608 36.8019L43.6587 38.8066C43.5516 39.0683 43.4365 39.2493 43.3123 39.3498C43.1904 39.4491 43.0275 39.4999 42.8247 39.4999C42.7358 39.4999 42.6584 39.4955 42.5923 39.4867V39.1378C42.6253 39.1433 42.6766 39.1466 42.7472 39.1466C42.9227 39.1466 43.048 39.0605 43.1209 38.8905L43.1483 38.8287L42.3325 36.8019H42.9113L43.4035 38.3562L43.8911 36.8019H44.4608Z" fill="#2B2B2B"/>
</g>
</g>
</g>
<g id="Group_55">
<g id="Group_56">
<g id="Group_57">
<path id="Vector_19" d="M47.8924 37.8484H47.022V37.5658H47.8924V37.8484Z" fill="#2B2B2B"/>
</g>
</g>
</g>
<g id="Group_58">
<g id="Group_59">
<g id="Group_60">
<path id="Vector_20" d="M51.8613 38.736L51.8249 38.4534L51.7292 38.6609C51.5981 38.7459 51.4329 38.789 51.2324 38.789C51.0501 38.789 50.8963 38.7382 50.7721 38.6388C50.6502 38.5395 50.5898 38.4004 50.5898 38.2237C50.5898 38.0118 50.6821 37.8484 50.8678 37.7336C51.0558 37.6166 51.3293 37.557 51.6882 37.557H51.8158V37.5172C51.8158 37.4411 51.8135 37.3803 51.8112 37.3362C51.793 37.1805 51.6893 37.1021 51.5013 37.1021C51.2939 37.1021 51.1834 37.2125 51.1686 37.4333H50.6673C50.673 37.2214 50.755 37.0558 50.9134 36.9343C51.0741 36.814 51.2757 36.7533 51.5195 36.7533C52.0174 36.7533 52.2852 36.9432 52.3216 37.3229C52.3273 37.4146 52.3307 37.5128 52.3307 37.6188V38.2458C52.3307 38.3938 52.3421 38.5571 52.3672 38.736H51.8613ZM51.4329 38.4357C51.5423 38.4357 51.6335 38.3993 51.7064 38.3253C51.7793 38.2524 51.8158 38.152 51.8158 38.025V37.8661C51.3566 37.8374 51.1276 37.9433 51.1276 38.184C51.1276 38.3518 51.229 38.4357 51.4329 38.4357Z" fill="#2B2B2B"/>
</g>
</g>
</g>
<g id="Group_61">
<g id="Group_62">
<g id="Group_63">
<path id="Vector_21" d="M54.8582 36.7533C55.1317 36.7533 55.347 36.8449 55.5054 37.0271C55.666 37.207 55.7469 37.4422 55.7469 37.7336C55.7469 38.067 55.6558 38.3253 55.4735 38.5108C55.2912 38.6962 55.0633 38.789 54.7899 38.789C54.5859 38.789 54.4299 38.7514 54.3205 38.6786L54.1883 38.4799V39.4469H53.6733V36.8019H54.1883V37.0977L54.3387 36.8858C54.4538 36.7975 54.627 36.7533 54.8582 36.7533ZM54.6896 38.4357C54.8446 38.4357 54.9688 38.3783 55.0633 38.2635C55.1602 38.1487 55.2091 37.9831 55.2091 37.7645C55.2091 37.568 55.1636 37.409 55.0724 37.2876C54.9813 37.164 54.8594 37.1021 54.7078 37.1021C54.5529 37.1021 54.4264 37.154 54.3296 37.2567C54.235 37.3605 54.1883 37.5238 54.1883 37.7468V37.8396C54.1883 38.0427 54.2362 38.1928 54.3341 38.29C54.4344 38.3871 54.5529 38.4357 54.6896 38.4357Z" fill="#2B2B2B"/>
</g>
</g>
</g>
<g id="Group_64">
<g id="Group_65">
<g id="Group_66">
<path id="Vector_22" d="M58.1317 36.7533C58.4051 36.7533 58.6204 36.8449 58.7788 37.0271C58.9395 37.207 59.0203 37.4422 59.0203 37.7336C59.0203 38.067 58.9292 38.3253 58.7469 38.5108C58.5646 38.6962 58.3368 38.789 58.0633 38.789C57.8594 38.789 57.7033 38.7514 57.5939 38.6786L57.4618 38.4799V39.4469H56.9468V36.8019H57.4618V37.0977L57.6121 36.8858C57.7272 36.7975 57.9004 36.7533 58.1317 36.7533ZM57.9631 38.4357C58.118 38.4357 58.2422 38.3783 58.3368 38.2635C58.4336 38.1487 58.4826 37.9831 58.4826 37.7645C58.4826 37.568 58.437 37.409 58.3459 37.2876C58.2547 37.164 58.1328 37.1021 57.9813 37.1021C57.8263 37.1021 57.6999 37.154 57.603 37.2567C57.5085 37.3605 57.4618 37.5238 57.4618 37.7468V37.8396C57.4618 38.0427 57.5096 38.1928 57.6076 38.29C57.7078 38.3871 57.8263 38.4357 57.9631 38.4357Z" fill="#2B2B2B"/>
</g>
</g>
</g>
<g id="Group_67">
<g id="Group_68">
<g id="Group_69">
<path id="Vector_23" d="M61.237 36.7533C61.2939 36.7533 61.3429 36.7599 61.3828 36.771V37.1728C61.1641 37.1584 61.0011 37.2037 60.8952 37.3097C60.7881 37.4157 60.7357 37.5956 60.7357 37.8484V38.736H60.2207V36.8019H60.7357V37.1551L60.8952 36.8858C60.992 36.7975 61.106 36.7533 61.237 36.7533Z" fill="#2B2B2B"/>
</g>
</g>
</g>
<g id="Group_70">
<g id="Group_71">
<g id="Group_72">
<path id="Vector_24" d="M64.3175 37.7292C64.3175 37.7998 64.3153 37.8572 64.313 37.9014H62.8957C62.923 38.258 63.0757 38.4357 63.356 38.4357C63.4676 38.4357 63.561 38.407 63.634 38.3474C63.7069 38.2889 63.7524 38.2094 63.7707 38.1089H64.2902C64.2378 38.3297 64.1273 38.4997 63.9575 38.6167C63.79 38.7316 63.585 38.789 63.3423 38.789C63.0563 38.789 62.8228 38.7029 62.6405 38.5284C62.4604 38.3551 62.3716 38.1045 62.3716 37.7778C62.3716 37.4775 62.4639 37.2324 62.6496 37.0403C62.8376 36.8493 63.0825 36.7533 63.3833 36.7533C63.6772 36.7533 63.9074 36.846 64.0715 37.0315C64.2355 37.217 64.3175 37.4499 64.3175 37.7292ZM63.3605 37.1021C63.1053 37.1021 62.9549 37.26 62.9093 37.5746H63.7843C63.7502 37.26 63.6089 37.1021 63.3605 37.1021Z" fill="#2B2B2B"/>
</g>
</g>
</g>
<g id="Group_73">
<g id="Group_74">
<g id="Group_75">
<path id="Vector_25" d="M66.3994 36.7533C66.6637 36.7533 66.8757 36.8228 67.0374 36.9608C67.2015 37.0999 67.2926 37.2788 67.3109 37.4996H66.8005C66.7549 37.2346 66.6182 37.1021 66.3903 37.1021C66.2502 37.1021 66.1396 37.1584 66.0576 37.2699C65.9779 37.3792 65.9391 37.5393 65.9391 37.7513C65.9391 37.9809 65.9779 38.1531 66.0576 38.2679C66.1396 38.3805 66.249 38.4357 66.3857 38.4357C66.4883 38.4357 66.5749 38.4048 66.6455 38.343C66.7184 38.2789 66.7663 38.1873 66.7913 38.0692H67.3063C67.263 38.3021 67.1571 38.4799 66.9873 38.6035C66.8198 38.7271 66.609 38.789 66.3538 38.789C66.0713 38.789 65.8411 38.7029 65.6657 38.5284C65.4891 38.3551 65.4014 38.1067 65.4014 37.7822C65.4014 37.4642 65.4948 37.2147 65.6839 37.0315C65.8753 36.846 66.1134 36.7533 66.3994 36.7533Z" fill="#2B2B2B"/>
</g>
</g>
</g>
<g id="Group_76">
<g id="Group_77">
<g id="Group_78">
<path id="Vector_26" d="M68.554 36.1572C68.6087 36.1075 68.6782 36.0822 68.7637 36.0822C68.848 36.0822 68.9163 36.1075 68.9688 36.1572C69.02 36.208 69.0462 36.2709 69.0462 36.3471C69.0462 36.4266 69.02 36.4917 68.9688 36.5414C68.9163 36.5889 68.848 36.612 68.7637 36.612C68.6782 36.612 68.6087 36.5889 68.554 36.5414C68.5016 36.4917 68.4766 36.4266 68.4766 36.3471C68.4766 36.2709 68.5016 36.208 68.554 36.1572ZM69.0189 38.736H68.5039V36.8019H69.0189V38.736Z" fill="#2B2B2B"/>
</g>
</g>
</g>
<g id="Group_79">
<g id="Group_80">
<g id="Group_81">
<path id="Vector_27" d="M71.5215 38.736L71.485 38.4534L71.3893 38.6609C71.2583 38.7459 71.0931 38.789 70.8926 38.789C70.7103 38.789 70.5565 38.7382 70.4323 38.6388C70.3104 38.5395 70.25 38.4004 70.25 38.2237C70.25 38.0118 70.3423 37.8484 70.528 37.7336C70.716 37.6166 70.9894 37.557 71.3483 37.557H71.4759V37.5172C71.4759 37.4411 71.4736 37.3803 71.4714 37.3362C71.4531 37.1805 71.3494 37.1021 71.1615 37.1021C70.9541 37.1021 70.8436 37.2125 70.8288 37.4333H70.3275C70.3332 37.2214 70.4152 37.0558 70.5736 36.9343C70.7342 36.814 70.9359 36.7533 71.1797 36.7533C71.6776 36.7533 71.9453 36.9432 71.9818 37.3229C71.9875 37.4146 71.9909 37.5128 71.9909 37.6188V38.2458C71.9909 38.3938 72.0023 38.5571 72.0273 38.736H71.5215ZM71.0931 38.4357C71.2025 38.4357 71.2936 38.3993 71.3665 38.3253C71.4395 38.2524 71.4759 38.152 71.4759 38.025V37.8661C71.0168 37.8374 70.7878 37.9433 70.7878 38.184C70.7878 38.3518 70.8892 38.4357 71.0931 38.4357Z" fill="#2B2B2B"/>
</g>
</g>
</g>
<g id="Group_82">
<g id="Group_83">
<g id="Group_84">
<path id="Vector_28" d="M73.9538 37.1463V38.0427C73.9538 38.1222 73.9538 38.1785 73.9538 38.2105C73.9629 38.3077 73.9914 38.3717 74.0404 38.4004C74.0916 38.4269 74.1885 38.4346 74.332 38.4225V38.7492C74.2227 38.7669 74.1087 38.7757 73.9902 38.7757C73.7988 38.7757 73.6621 38.7448 73.5801 38.683C73.5003 38.6212 73.4548 38.5196 73.4434 38.3783C73.4365 38.3231 73.4342 38.2304 73.4342 38.1001V37.1463H73.1426V36.8151H73.4342V36.3427H73.9538V36.8151H74.3639V37.1463H73.9538Z" fill="#2B2B2B"/>
</g>
</g>
</g>
<g id="Group_85">
<g id="Group_86">
<g id="Group_87">
<path id="Vector_29" d="M77.3595 37.7292C77.3595 37.7998 77.3573 37.8572 77.355 37.9014H75.9377C75.965 38.258 76.1177 38.4357 76.3979 38.4357C76.5096 38.4357 76.603 38.407 76.6759 38.3474C76.7489 38.2889 76.7944 38.2094 76.8127 38.1089H77.3322C77.2798 38.3297 77.1693 38.4997 76.9995 38.6167C76.832 38.7316 76.627 38.789 76.3843 38.789C76.0983 38.789 75.8647 38.7029 75.6825 38.5284C75.5024 38.3551 75.4136 38.1045 75.4136 37.7778C75.4136 37.4775 75.5059 37.2324 75.6916 37.0403C75.8796 36.8493 76.1245 36.7533 76.4253 36.7533C76.7192 36.7533 76.9494 36.846 77.1134 37.0315C77.2775 37.217 77.3595 37.4499 77.3595 37.7292ZM76.4025 37.1021C76.1473 37.1021 75.9969 37.26 75.9513 37.5746H76.8263C76.7922 37.26 76.6509 37.1021 76.4025 37.1021Z" fill="#2B2B2B"/>
</g>
</g>
</g>
<g id="Group_88">
<g id="Group_89">
<g id="Group_90">
<path id="Vector_30" d="M56.3649 2.15479C56.644 2.15479 56.8571 2.22323 57.0029 2.35791C57.151 2.49369 57.2399 2.67474 57.2673 2.90105H56.7705C56.7546 2.77741 56.7113 2.68247 56.6383 2.61402C56.5677 2.54337 56.4709 2.50805 56.3467 2.50805C56.2464 2.50805 56.1644 2.53344 56.1006 2.58311C56.0368 2.63058 56.0049 2.70013 56.0049 2.79065C56.0049 2.89111 56.0425 2.9706 56.1188 3.02911C56.194 3.08541 56.3296 3.13508 56.5244 3.17924C56.791 3.23885 56.987 3.32827 57.1123 3.4486C57.2399 3.57004 57.3037 3.72569 57.3037 3.91667C57.3037 4.13194 57.2148 4.30305 57.0394 4.4289C56.8662 4.55586 56.6532 4.61878 56.4014 4.61878C56.1029 4.61878 55.8647 4.55586 55.6859 4.4289C55.5093 4.30305 55.4102 4.11538 55.3896 3.8681H55.8864C55.9137 3.99505 55.973 4.0933 56.0641 4.16396C56.1553 4.2324 56.2646 4.26552 56.3923 4.26552C56.5073 4.26552 56.603 4.23902 56.6794 4.18604C56.7546 4.13084 56.7933 4.05687 56.7933 3.96525C56.7933 3.86589 56.7546 3.7842 56.6794 3.72238C56.6064 3.66056 56.4811 3.60978 56.3057 3.56783C56.0322 3.5038 55.8271 3.41769 55.6904 3.31171C55.556 3.20574 55.4899 3.05118 55.4899 2.84806C55.4899 2.6361 55.5742 2.4683 55.7451 2.34466C55.9149 2.21881 56.1211 2.15479 56.3649 2.15479Z" fill="#2B2B2B"/>
</g>
</g>
</g>
<g id="Group_91">
<g id="Group_92">
<g id="Group_93">
<path id="Vector_31" d="M56.6038 7.71646H56.1162V5.34961H56.6038V7.71646Z" fill="#2B2B2B"/>
</g>
</g>
</g>
<g id="Group_94">
<g id="Group_95">
<g id="Group_96">
<path id="Vector_32" d="M57.4326 10.8627H56.7627L55.7555 9.06548C55.7669 9.28075 55.7738 9.52362 55.7738 9.79408V10.8627H55.2861V8.49585H55.9333L56.9632 10.3284C56.9507 10.1164 56.945 9.86805 56.945 9.58213V8.49585H57.4281L57.4326 10.8627Z" fill="#2B2B2B"/>
</g>
</g>
</g>
<g id="Group_97">
<g id="Group_98">
<g id="Group_99">
<path id="Vector_33" d="M56.4079 11.5936C56.7269 11.5936 56.9753 11.6687 57.1553 11.8188C57.3341 11.969 57.4378 12.1666 57.4652 12.4105V12.4459H56.9775L56.973 12.4105C56.9092 12.1014 56.7189 11.9469 56.4033 11.9469C56.2028 11.9469 56.041 12.0253 55.9202 12.1809C55.8018 12.3344 55.7425 12.5452 55.7425 12.8124C55.7425 13.0983 55.8018 13.3191 55.9202 13.4747C56.041 13.6282 56.1994 13.7044 56.3942 13.7044C56.5492 13.7044 56.6733 13.6624 56.7679 13.5763C56.8613 13.4913 56.9251 13.3732 56.9593 13.223L56.9684 13.1877H57.4515V13.223C57.4242 13.4792 57.3148 13.6823 57.1234 13.8324C56.932 13.9826 56.6813 14.0576 56.3714 14.0576C56.0273 14.0576 55.7516 13.9494 55.542 13.7309C55.3324 13.5101 55.2275 13.2131 55.2275 12.8389C55.2275 12.4591 55.3381 12.1577 55.5602 11.9336C55.7813 11.7073 56.0638 11.5936 56.4079 11.5936Z" fill="#2B2B2B"/>
</g>
</g>
</g>
<g id="Group_100">
<g id="Group_101">
<g id="Group_102">
<path id="Vector_34" d="M57.3032 16.78V17.1553H55.5396V14.7885H57.2668V15.1594H56.0272V15.782H57.1802V16.1573H56.0272V16.78H57.3032Z" fill="#2B2B2B"/>
</g>
</g>
</g>
<g id="Group_103">
<g id="Group_104">
<g id="Group_105">
<path id="Vector_35" d="M56.1683 23.0725H57.2028V23.4478H55.4209V23.2226L56.2412 22.4454C56.4144 22.2809 56.534 22.1496 56.6012 22.0524C56.6673 21.9531 56.7015 21.8482 56.7015 21.7389C56.7015 21.6329 56.6707 21.5479 56.6104 21.4828C56.5488 21.4154 56.4622 21.3812 56.3506 21.3812C56.2321 21.3812 56.141 21.4187 56.0771 21.4916C56.0133 21.5623 55.9735 21.6704 55.9587 21.814L55.9541 21.8493H55.471V21.814C55.4984 21.5612 55.5907 21.3669 55.749 21.2311C55.9062 21.0964 56.1227 21.028 56.3962 21.028C56.6605 21.028 56.8633 21.0898 57.0068 21.2134C57.1493 21.3371 57.221 21.5038 57.221 21.7124C57.221 21.8603 57.1777 21.9983 57.0934 22.1275C57.008 22.2544 56.8496 22.4266 56.6195 22.6441L56.1683 23.0725Z" fill="#2B2B2B"/>
</g>
</g>
</g>
<g id="Group_106">
<g id="Group_107">
<g id="Group_108">
<path id="Vector_36" d="M56.3187 24.1787C56.9499 24.1787 57.2666 24.5894 57.2666 25.4107C57.2666 26.232 56.9499 26.6427 56.3187 26.6427C55.6829 26.6427 55.3662 26.232 55.3662 25.4107C55.3662 24.5894 55.6829 24.1787 56.3187 24.1787ZM55.9906 26.0775C56.0601 26.2188 56.1694 26.2894 56.3187 26.2894C56.4668 26.2894 56.5762 26.2188 56.6468 26.0775C56.7163 25.934 56.7516 25.711 56.7516 25.4107C56.7516 25.1082 56.7163 24.8852 56.6468 24.7439C56.5762 24.6026 56.4668 24.532 56.3187 24.532C56.166 24.532 56.0555 24.6026 55.986 24.7439C55.9188 24.8852 55.8857 25.1082 55.8857 25.4107C55.8857 25.711 55.9199 25.934 55.9906 26.0775Z" fill="#2B2B2B"/>
</g>
</g>
</g>
<g id="Group_109">
<g id="Group_110">
<g id="Group_111">
<path id="Vector_37" d="M56.1683 29.3651H57.2028V29.7404H55.4209V29.5152L56.2412 28.738C56.4144 28.5735 56.534 28.4422 56.6012 28.345C56.6673 28.2457 56.7015 28.1408 56.7015 28.0315C56.7015 27.9255 56.6707 27.8405 56.6104 27.7754C56.5488 27.708 56.4622 27.6738 56.3506 27.6738C56.2321 27.6738 56.141 27.7114 56.0771 27.7842C56.0133 27.8549 55.9735 27.9631 55.9587 28.1066L55.9541 28.1419H55.471V28.1066C55.4984 27.8538 55.5907 27.6595 55.749 27.5237C55.9062 27.389 56.1227 27.3206 56.3962 27.3206C56.6605 27.3206 56.8633 27.3824 57.0068 27.506C57.1493 27.6297 57.221 27.7964 57.221 28.005C57.221 28.1529 57.1777 28.2909 57.0934 28.4201C57.008 28.547 56.8496 28.7192 56.6195 28.9367L56.1683 29.3651Z" fill="#2B2B2B"/>
</g>
</g>
</g>
<g id="Group_112">
<g id="Group_113">
<g id="Group_114">
<path id="Vector_38" d="M56.7336 31.6325C57.0731 31.7098 57.244 31.8997 57.244 32.2022C57.244 32.423 57.1551 32.6018 56.9797 32.7365C56.8031 32.8689 56.5752 32.9352 56.2961 32.9352C56.0192 32.9352 55.7993 32.8723 55.6353 32.7453C55.4712 32.6195 55.3755 32.4351 55.3481 32.1933V32.158H55.8358L55.8403 32.1933C55.8608 32.3148 55.911 32.4097 55.9907 32.4804C56.0693 32.5488 56.1707 32.5819 56.2961 32.5819C56.4237 32.5819 56.5262 32.5499 56.606 32.4848C56.688 32.4174 56.729 32.3291 56.729 32.2198C56.729 31.9814 56.5661 31.8577 56.2414 31.8489H56.1593V31.5221L56.2414 31.5177C56.3713 31.5122 56.4749 31.4769 56.5513 31.4117C56.6299 31.3444 56.6698 31.255 56.6698 31.1424C56.6698 31.0486 56.6379 30.9724 56.5741 30.9128C56.5125 30.8543 56.4294 30.8245 56.3234 30.8245C56.214 30.8245 56.1252 30.8587 56.0591 30.926C55.9953 30.9945 55.9565 31.085 55.9451 31.1998L55.9406 31.2307H55.4575V31.1998C55.478 30.9856 55.568 30.8101 55.7264 30.6743C55.8836 30.5396 56.1012 30.4712 56.3781 30.4712C56.6333 30.4712 56.8315 30.5286 56.9751 30.6434C57.1175 30.7582 57.1893 30.9072 57.1893 31.0894C57.1893 31.2252 57.1494 31.3411 57.0708 31.4382C56.991 31.5332 56.8794 31.5972 56.7336 31.6325Z" fill="#2B2B2B"/>
</g>
</g>
</g>
</g>
<defs>
<clipPath id="clip0_54811_953">
<rect width="77" height="39" fill="white" transform="translate(0.5 0.5)"/>
</clipPath>
</defs>
</svg>
