<svg width="88" height="80" viewBox="0 0 88 80" fill="none" xmlns="http://www.w3.org/2000/svg">
  <g clip-path="url(#clip0_55633_12380)">
    <path
      d="M8.51496 21.2578V0H28.8972V21.2578H41.3344V36.2753H28.8972V54.4022C28.8972 59.6707 30.4337 62.305 33.5123 62.305C34.2777 62.305 35.0823 62.1592 35.926 61.8623C36.7668 61.5681 37.4178 61.2686 37.8815 60.9663L38.5743 60.5236L43.6364 76.4372C39.2616 78.8124 34.2749 80 28.6737 80C24.8353 80 21.536 79.3522 18.7731 78.0567C16.0075 76.7557 13.915 75.0094 12.4931 72.8205C11.0683 70.6343 10.0487 68.3347 9.43127 65.9217C8.81946 63.5115 8.51496 60.9339 8.51496 58.1916V36.2753H0V21.2578H8.51496Z"
      fill="#785B5B" />
    <path
      d="M48.8634 33.272C45.3786 29.5371 43.6362 24.9573 43.6362 19.53C43.6362 14.0973 45.3786 9.49879 48.8634 5.73443C52.3537 1.97007 56.7941 0.0878906 62.182 0.0878906C67.126 0.0878906 71.1989 1.61449 74.4006 4.66501V1.16801H87.2726V37.8064H74.5421V33.6677H74.4006C71.1989 37.1406 67.126 38.8758 62.182 38.8758C56.7941 38.8758 52.3537 37.0096 48.8634 33.272ZM59.8079 13.3059C58.1363 14.9261 57.3032 16.9954 57.3032 19.5193C57.3032 22.0431 58.1009 24.1044 59.699 25.7005C61.3026 27.2993 63.4153 28.096 66.037 28.096C68.5553 28.096 70.6272 27.2886 72.2552 25.6684C73.8806 24.0429 74.6946 21.995 74.6946 19.5193C74.6946 16.9954 73.8561 14.9261 72.179 13.3059C70.5074 11.6884 68.4601 10.8783 66.037 10.8783C63.5595 10.8783 61.485 11.6884 59.8079 13.3059Z"
      fill="#785B5B" />
    <path
      d="M48.8634 74.396C45.3786 70.6611 43.6362 66.0813 43.6362 60.654C43.6362 55.2213 45.3786 50.6228 48.8634 46.8585C52.3537 43.0941 56.7941 41.2119 62.182 41.2119C67.126 41.2119 71.1989 42.7385 74.4006 45.789V42.292H87.2726V78.9304H74.5421V74.7917H74.4006C71.1989 78.2647 67.126 79.9998 62.182 79.9998C56.7941 79.9998 52.3537 78.1337 48.8634 74.396ZM59.8079 54.43C58.1363 56.0501 57.3032 58.1195 57.3032 60.6433C57.3032 63.1671 58.1009 65.2284 59.699 66.8245C61.3026 68.4233 63.4153 69.22 66.037 69.22C68.5553 69.22 70.6272 68.4126 72.2552 66.7925C73.8806 65.1669 74.6946 63.119 74.6946 60.6433C74.6946 58.1195 73.8561 56.0501 72.179 54.43C70.5074 52.8125 68.4601 52.0024 66.037 52.0024C63.5595 52.0024 61.485 52.8125 59.8079 54.43Z"
      fill="#785B5B" />
  </g>
  <defs>
    <clipPath id="clip0_55633_12380">
      <rect width="87.2727" height="80" fill="white" />
    </clipPath>
  </defs>
</svg>