<svg width="24" height="24" viewBox="0 0 24 24" fill="none" xmlns="http://www.w3.org/2000/svg">
<g id="Icon">
<mask id="mask0_55336_9205" style="mask-type:alpha" maskUnits="userSpaceOnUse" x="0" y="0" width="24" height="24">
<rect id="Bounding box" width="24" height="24" fill="#D9D9D9"/>
</mask>
<g mask="url(#mask0_55336_9205)">
<path id="shopping_cart" d="M7 22C6.45 22 5.97917 21.8042 5.5875 21.4125C5.19583 21.0208 5 20.55 5 20C5 19.45 5.19583 18.9792 5.5875 18.5875C5.97917 18.1958 6.45 18 7 18C7.55 18 8.02083 18.1958 8.4125 18.5875C8.80417 18.9792 9 19.45 9 20C9 20.55 8.80417 21.0208 8.4125 21.4125C8.02083 21.8042 7.55 22 7 22ZM17 22C16.45 22 15.9792 21.8042 15.5875 21.4125C15.1958 21.0208 15 20.55 15 20C15 19.45 15.1958 18.9792 15.5875 18.5875C15.9792 18.1958 16.45 18 17 18C17.55 18 18.0208 18.1958 18.4125 18.5875C18.8042 18.9792 19 19.45 19 20C19 20.55 18.8042 21.0208 18.4125 21.4125C18.0208 21.8042 17.55 22 17 22ZM5.2 4H19.95C20.3333 4 20.625 4.17083 20.825 4.5125C21.025 4.85417 21.0333 5.2 20.85 5.55L17.3 11.95C17.1167 12.2833 16.8708 12.5417 16.5625 12.725C16.2542 12.9083 15.9167 13 15.55 13H8.1L7 15H19V17H7C6.25 17 5.68333 16.6708 5.3 16.0125C4.91667 15.3542 4.9 14.7 5.25 14.05L6.6 11.6L3 4H1V2H4.25L5.2 4Z" fill="#1C1B1F"/>
</g>
</g>
</svg>
