<svg width="24" height="24" viewBox="0 0 24 24" fill="none" xmlns="http://www.w3.org/2000/svg">
<g id="&#240;&#159;&#166;&#134; icon &#34;instagram icon&#34;">
<path id="c" d="M20.4 0H3.6C1.61177 0 0 1.61177 0 3.6V20.4C0 22.3882 1.61177 24 3.6 24H20.4C22.3882 24 24 22.3882 24 20.4V3.6C24 1.61177 22.3882 0 20.4 0Z" fill="black"/>
<path id="c_2" d="M20.4 0H3.6C1.61177 0 0 1.61177 0 3.6V20.4C0 22.3882 1.61177 24 3.6 24H20.4C22.3882 24 24 22.3882 24 20.4V3.6C24 1.61177 22.3882 0 20.4 0Z" fill="url(#paint0_radial_55336_9423)"/>
<path id="c_3" d="M20.4 0H3.6C1.61177 0 0 1.61177 0 3.6V20.4C0 22.3882 1.61177 24 3.6 24H20.4C22.3882 24 24 22.3882 24 20.4V3.6C24 1.61177 22.3882 0 20.4 0Z" fill="url(#paint1_linear_55336_9423)"/>
<g id="Group">
<path id="Vector" d="M15.4219 4.78125H8.57812C6.48117 4.78125 4.78125 6.48117 4.78125 8.57812V15.4219C4.78125 17.5188 6.48117 19.2188 8.57812 19.2188H15.4219C17.5188 19.2188 19.2188 17.5188 19.2188 15.4219V8.57812C19.2188 6.48117 17.5188 4.78125 15.4219 4.78125Z" stroke="white" stroke-width="0.989986"/>
<path id="Vector_2" d="M12 15.375C13.864 15.375 15.375 13.864 15.375 12C15.375 10.136 13.864 8.625 12 8.625C10.136 8.625 8.625 10.136 8.625 12C8.625 13.864 10.136 15.375 12 15.375Z" stroke="white" stroke-width="0.989986"/>
<path id="Vector_3" d="M16.2656 8.01562C16.421 8.01562 16.5469 7.88971 16.5469 7.73438C16.5469 7.57904 16.421 7.45312 16.2656 7.45312C16.1103 7.45312 15.9844 7.57904 15.9844 7.73438C15.9844 7.88971 16.1103 8.01562 16.2656 8.01562Z" stroke="white" stroke-width="0.989986"/>
</g>
</g>
<defs>
<radialGradient id="paint0_radial_55336_9423" cx="0" cy="0" r="1" gradientUnits="userSpaceOnUse" gradientTransform="translate(9.6 24) scale(24)">
<stop offset="0.1" stop-color="#FFDD55"/>
<stop offset="0.5" stop-color="#FF543E"/>
<stop offset="1" stop-color="#C837AB"/>
</radialGradient>
<linearGradient id="paint1_linear_55336_9423" x1="0" y1="0" x2="4.8" y2="24" gradientUnits="userSpaceOnUse">
<stop offset="0.1" stop-color="#3771C8"/>
<stop offset="0.5" stop-color="#6600FF" stop-opacity="0"/>
</linearGradient>
</defs>
</svg>
