<svg width="24" height="24" viewBox="0 0 24 24" fill="none" xmlns="http://www.w3.org/2000/svg">
<g id="&#240;&#159;&#166;&#134; icon &#34;facebook&#34;">
<path id="Vector" d="M20.4 0H3.6C1.61177 0 0 1.61177 0 3.6V20.4C0 22.3882 1.61177 24 3.6 24H20.4C22.3882 24 24 22.3882 24 20.4V3.6C24 1.61177 22.3882 0 20.4 0Z" fill="#1877F2"/>
<path id="Vector_2" d="M16.6688 15.4688L17.2031 12H13.875V9.75C13.875 8.80312 14.3391 7.875 15.8297 7.875H17.3438V4.92188C17.3438 4.92188 15.9703 4.6875 14.6578 4.6875C11.9156 4.6875 10.125 6.34688 10.125 9.35625V12H7.07812V15.4688H10.125V24H13.875V15.4688H16.6688Z" fill="white"/>
</g>
</svg>
